HIERARCHY
ROOT Hips
{
  OFFSET 1.44925e-005 102.336 -0.101585
  CHANNELS 6 Xposition Yposition Zposition Zrotation Xrotation Yrotation
  JOINT LeftUpLeg
  {
    OFFSET 8.9458 -8.66707 0.101652
    CHANNELS 3 Zrotation Xrotation Yrotation
    JOINT LeftLeg
    {
      OFFSET 0 -44.4227 1.3727
      CHANNELS 3 Zrotation Xrotation Yrotation
      JOINT LeftFoot
      {
        OFFSET -0.253549 -42.0924 -1.46059
        CHANNELS 3 Zrotation Xrotation Yrotation
        JOINT LeftToes
        {
          OFFSET -0.04 -4.41509 8.4991
          CHANNELS 3 Zrotation Xrotation Yrotation
          End Site
          {
            OFFSET 0.08 -0.047448 9.77979
          }
        }
      }
    }
  }
  JOINT Spine
  {
    OFFSET 0 11.8905 0
    CHANNELS 3 Zrotation Xrotation Yrotation
    JOINT Spine1
    {
      OFFSET 0 25.6574 0.127663
      CHANNELS 3 Zrotation Xrotation Yrotation
      JOINT RightShoulder
      {
        OFFSET -8.99 -0.362252 -0.22
        CHANNELS 3 Zrotation Xrotation Yrotation
        JOINT RightArm
        {
          OFFSET -10.2827 -0.00338 0.322123
          CHANNELS 3 Zrotation Xrotation Yrotation
          JOINT RightForeArm
          {
            OFFSET -26.364 0.099144 -1.42434
            CHANNELS 3 Zrotation Xrotation Yrotation
            JOINT RightHand
            {
              OFFSET -22.0324 0.085362 1.02216
              CHANNELS 3 Zrotation Xrotation Yrotation
              End Site
              {
                OFFSET -13.3284 -0.6 1.50291
              }
            }
          }
        }
      }
      JOINT LeftShoulder1
      {
        OFFSET 8.99 -0.362252 -0.22
        CHANNELS 3 Zrotation Xrotation Yrotation
        JOINT LeftArm
        {
          OFFSET 10.2827 -0.00337999 0.322123
          CHANNELS 3 Zrotation Xrotation Yrotation
          JOINT LeftForeArm
          {
            OFFSET 26.2597 0.099144 -1.42434
            CHANNELS 3 Zrotation Xrotation Yrotation
            JOINT LeftHand
            {
              OFFSET 22.0902 0.085362 1.02216
              CHANNELS 3 Zrotation Xrotation Yrotation
              End Site
              {
                OFFSET 13.419 -0.6 1.50291
              }
            }
          }
        }
      }
      JOINT Head
      {
        OFFSET 0 8.73416 0.011341
        CHANNELS 3 Zrotation Xrotation Yrotation
        End Site
        {
          OFFSET -0.29 12.7742 2.51395
        }
      }
    }
  }
  JOINT RightUpLeg
  {
    OFFSET -8.9458 -8.66707 0.101652
    CHANNELS 3 Zrotation Xrotation Yrotation
    JOINT RightLeg
    {
      OFFSET 0 -44.4227 1.3727
      CHANNELS 3 Zrotation Xrotation Yrotation
      JOINT RightFoot
      {
        OFFSET 0.253549 -42.0924 -1.46059
        CHANNELS 3 Zrotation Xrotation Yrotation
        JOINT RightToes
        {
          OFFSET 0.04 -4.41509 8.4991
          CHANNELS 3 Zrotation Xrotation Yrotation
          End Site
          {
            OFFSET -0.08 -0.137448 9.77979
          }
        }
      }
    }
  }
}
MOTION
Frames:	12
Frame Time:	0.0333333
-1.13856 100.267 6.2973 -7.32133 0.910076 -85.2178 -2.65655 -2.88971 1.87738 1.0156 23.7841 19.7409 -1.24667 -18.231 -0.021596 -1.31886e-009 8.75233e-006 -1.47058e-008 -4.14372 12.0097 0.918906 0.71012 -2.4456 0.353751 34.0816 1.6435 0.0483588 36.506 -21.0487 4.49393 7.65302 32.7461 9.60471 -18.1669 8.56047 3.47801 -39.6203 3.12645 -3.30627 -22.2546 -21.8476 4.54833 -9.98592 38.3349 -6.20064 5.82328 9.61819 -0.917488 3.90164 12.4239 -9.91315 -5.69553 -12.0657 -8.27536 -1.1232 41.0756 -16.0411 14.3225 -6.58434 -0.303808 0.0462048 0.000530889 0.662642 
-0.861576 99.8033 6.84268 -8.6963 0.755774 -86.4317 -3.11531 -2.30503 2.73087 0.999309 25.512 20.3452 -0.993154 -19.237 -0.000571341 -1.31886e-009 8.75233e-006 -1.47058e-008 -4.5576 13.7252 1.14775 0.0484335 -2.3024 0.50482 34.1101 1.64698 0.0530094 36.2492 -21.1537 3.96149 7.78105 32.4923 9.48071 -18.3927 8.53246 3.54606 -39.6461 3.12953 -3.30892 -22.0845 -22.0988 5.68095 -9.72903 37.9817 -6.50956 5.82328 9.61819 -0.917488 3.93605 12.2958 -9.2838 -7.11992 -19.4134 -6.54988 -1.433 55.184 -14.7179 16.0038 2.68498 -1.558 0.0462048 0.000530889 0.662642 
-0.677695 99.2667 7.2775 -10.0328 0.682084 -87.6349 -3.39171 -1.86895 3.86913 0.993142 27.55 20.6214 -0.975868 -20.4134 -0.00171242 -1.31886e-009 8.75233e-006 -1.47058e-008 -5.01364 15.5361 1.24005 -0.820815 -2.59631 0.501982 34.2496 1.65297 0.0539653 36.0137 -20.9138 3.28113 7.94405 31.9784 9.42654 -18.4074 8.55169 3.41168 -39.71 3.1408 -3.32337 -21.7411 -22.3757 6.95426 -9.49142 38.0295 -6.73158 5.82328 9.61819 -0.917488 3.85832 12.3711 -8.41213 -8.12191 -27.4054 -5.1909 -2.15713 69.3587 -12.2119 17.5986 10.6573 -2.86724 0.0462048 0.000530889 0.662642 
-0.630202 98.8862 7.63834 -11.1846 0.932625 -88.2351 -3.20868 -1.33997 4.76156 1.01735 29.0582 20.5594 -0.912307 -21.36 0.00380954 -1.31886e-009 8.75233e-006 -1.47058e-008 -5.27306 17.1867 0.998688 -1.2011 -3.14486 0.146535 34.5017 1.65687 0.0443175 35.6412 -20.7713 2.4182 8.04938 31.6817 9.38221 -18.2556 8.58704 3.25631 -39.737 3.14929 -3.33757 -21.4898 -22.9435 8.2445 -9.2438 38.0323 -6.89393 5.82328 9.61819 -0.917488 3.75704 12.6095 -7.50013 -8.70077 -35.2518 -4.93551 -5.41432 82.4143 -6.97125 18.0279 13.0617 -3.305 0.0462048 0.000530889 0.662642 
-0.645965 98.7481 7.99735 -12.1883 1.51614 -88.1934 -2.6741 -0.560377 5.28165 1.04445 29.7103 20.207 -0.665393 -21.8783 0.0342785 -1.31886e-009 8.75233e-006 -1.47058e-008 -5.33456 18.7523 0.490869 -0.818238 -3.90472 -0.464572 34.669 1.65426 0.0229622 35.207 -21.2127 1.29426 8.00922 32.1011 9.26876 -18.2743 8.55753 3.44131 -39.5723 3.13435 -3.33095 -21.7212 -23.6161 9.43828 -8.82472 37.6323 -7.31454 5.82328 9.61819 -0.917488 3.80046 12.9953 -6.8708 -9.76146 -42.7294 -6.51065 -165.615 87.1459 154.304 16.5564 12.951 -3.01737 0.0462048 0.000530889 0.662642 
-0.686595 98.7164 8.3936 -13.189 2.22228 -88.0858 -2.00108 0.390112 5.80952 1.05613 30.0448 19.7393 -0.413303 -22.1925 0.0673787 -1.31886e-009 8.75233e-006 -1.47058e-008 -5.01424 20.5162 -0.0198541 -0.443049 -5.1119 -0.898991 34.6829 1.64209 -0.0081225 34.6998 -21.777 -0.26767 7.86685 32.5011 9.28376 -18.5768 8.46353 3.89881 -39.2299 3.10175 -3.3136 -22.3974 -23.8837 10.566 -7.94478 36.7056 -8.55397 5.82328 9.61819 -0.917488 4.00823 13.3321 -6.60626 -11.6933 -50.0237 -9.36767 -175.308 81.344 163.405 15.2137 14.7743 -3.00514 0.0462048 0.000530889 0.662642 
-0.707456 98.8661 8.88673 -14.4018 3.35014 -88.3004 -0.994267 1.83729 6.41354 1.06928 29.8669 19.4512 -0.134068 -22.198 0.103835 -1.31886e-009 8.75233e-006 -1.47058e-008 -3.56524 22.7618 -0.534186 -0.400344 -6.5372 -0.974996 34.6061 1.62615 -0.0405575 34.0394 -21.8388 -2.08127 7.75568 31.9807 9.56899 -18.789 8.40057 4.19146 -38.8731 3.07199 -3.30439 -23.347 -23.4691 11.5642 -6.46144 35.0255 -10.8893 5.82328 9.61819 -0.917488 4.05557 13.159 -6.33645 -13.8569 -56.9477 -12.5122 -175.831 80.2101 163.542 16.5607 18.1771 -3.75007 0.0462048 0.000530889 0.662642 
-0.522361 99.2286 9.48393 -16.0412 4.95949 -88.3855 0.369185 3.93991 6.65372 1.09654 28.9756 19.4147 0.383883 -21.7576 0.167238 -1.31886e-009 8.75233e-006 -1.47058e-008 -1.15903 25.6672 -1.20276 0.0687404 -7.60291 -1.01933 34.4303 1.6059 -0.0752575 33.2094 -21.7118 -3.75102 7.74158 31.0561 9.85892 -18.5983 8.42631 4.12866 -38.5409 3.04291 -3.29244 -24.6728 -22.5337 12.1901 -4.7063 32.5324 -13.8263 5.82328 9.61819 -0.917488 3.66092 12.3977 -5.7792 -16.6756 -62.7421 -16.4108 -174.578 82.9539 164.909 20.65 20.091 -5.01167 0.0462048 0.000530889 0.662642 
-0.0972649 99.496 10.089 -18.1332 6.46011 -87.7988 1.68756 6.16739 6.35397 1.11226 28.3422 19.4667 1.03355 -21.3572 0.243715 -1.31886e-009 8.75233e-006 -1.47058e-008 1.15443 29.2132 -2.01422 1.14346 -8.5834 -1.22198 34.0881 1.57142 -0.13146 32.2885 -22.1262 -5.3055 7.81199 30.9256 9.7306 -18.1819 8.49589 3.89989 -38.0767 2.99164 -3.25119 -26.3409 -21.5247 12.4409 -3.08782 29.9978 -16.6655 5.82328 9.61819 -0.917488 3.08345 11.6729 -5.14711 -21.1332 -66.6813 -21.6069 -115.44 89.4289 110.715 25.0525 20.344 -6.17498 0.0462048 0.000530889 0.662642 
0.513779 99.6025 10.6808 -20.3281 7.89079 -87.1487 3.01744 8.03981 5.99393 1.11187 28.341 19.6149 1.56637 -21.1246 0.304278 -1.31886e-009 8.75233e-006 -1.47058e-008 3.56924 33.2418 -2.94818 2.06167 -10.1094 -1.32351 33.535 1.51364 -0.229728 31.559 -22.9995 -6.88557 7.98654 31.7829 9.10255 -17.8032 8.55852 3.68546 -37.4504 2.91651 -3.18018 -27.885 -20.9615 12.7593 -1.45617 28.2269 -19.4784 5.82328 9.61819 -0.917488 2.74868 11.3606 -4.52392 -23.7014 -68.4417 -24.306 -1.50327 77.5972 -1.25462 27.2567 22.0407 -7.12777 0.0462048 0.000530889 0.662642 
1.61225 99.8131 11.3509 -22.2394 9.82432 -86.9811 4.74279 9.39336 5.83899 1.11747 28.1502 19.9594 2.09634 -20.3877 0.349064 -1.31886e-009 8.75233e-006 -1.47058e-008 6.51641 37.3804 -3.97631 3.22279 -11.3117 -1.40191 32.7321 1.42921 -0.3792 31.3622 -23.5811 -8.07892 8.13328 32.9104 8.49561 -17.4566 8.60173 3.5789 -36.9046 2.84783 -3.10875 -28.7556 -21.9499 13.5814 0.371087 27.6594 -22.7448 5.82328 9.61819 -0.917488 2.50789 10.8588 -3.4069 -19.7321 -67.4491 -19.6212 -0.713948 58.1044 -5.28923 25.7867 23.7911 -7.11885 0.0462048 0.000530889 0.662642 
2.87358 100.016 11.8956 -24.2061 11.3264 -85.8715 6.35524 10.5483 5.27027 1.10459 27.8882 19.7352 2.71982 -19.452 0.391888 -1.31886e-009 8.75233e-006 -1.47058e-008 7.79784 40.6137 -4.82055 6.17431 -10.6799 -2.22881 31.7457 1.31903 -0.589027 31.6236 -23.4996 -8.75857 7.80601 33.3783 8.88146 -17.2596 8.58788 3.78554 -36.4858 2.79141 -3.04367 -28.9845 -25.1382 14.6814 2.01347 28.729 -26.27 5.82328 9.61819 -0.917488 1.90733 9.67331 -1.67322 -14.777 -62.3819 -11.4308 -0.713496 34.0177 -11.3309 18.5891 18.9418 -4.42041 0.0462048 0.000530889 0.662642 
